<svg width="57" height="58" viewBox="0 0 57 58" fill="none" xmlns="http://www.w3.org/2000/svg">
<circle cx="28" cy="29" r="27.5" stroke="#AF8F3F"/>
<g clip-path="url(#clip0_456_2019)">
<path d="M28.4704 17.5221C32.3352 17.5221 32.7888 17.5387 34.3164 17.6053C35.729 17.6663 36.4928 17.8936 37.0039 18.0877C37.6815 18.3427 38.1639 18.6421 38.6692 19.13C39.1746 19.618 39.4904 20.0837 39.7488 20.738C39.9441 21.2314 40.1853 21.9688 40.2484 23.3328C40.3174 24.8077 40.3346 25.2457 40.3346 28.9772C40.3346 32.7086 40.3174 33.1467 40.2484 34.6215C40.1853 35.9855 39.9498 36.7229 39.7488 37.2164C39.4847 37.8706 39.1746 38.3364 38.6692 38.8243C38.1639 39.3122 37.6815 39.6172 37.0039 39.8667C36.4928 40.0552 35.729 40.2881 34.3164 40.349C32.7888 40.4156 32.3352 40.4322 28.4704 40.4322C24.6057 40.4322 24.152 40.4156 22.6245 40.349C21.2118 40.2881 20.4481 40.0607 19.937 39.8667C19.2593 39.6116 18.777 39.3122 18.2716 38.8243C17.7663 38.3364 17.4504 37.8706 17.192 37.2164C16.9968 36.7229 16.7556 35.9855 16.6924 34.6215C16.6235 33.1467 16.6063 32.7086 16.6063 28.9772C16.6063 25.2457 16.6235 24.8077 16.6924 23.3328C16.7556 21.9688 16.991 21.2314 17.192 20.738C17.4562 20.0837 17.7663 19.618 18.2716 19.13C18.777 18.6421 19.2593 18.3372 19.937 18.0877C20.4481 17.8991 21.2118 17.6663 22.6245 17.6053C24.152 17.5332 24.6057 17.5221 28.4704 17.5221ZM28.4704 15.0049C24.5425 15.0049 24.0486 15.0215 22.5039 15.0881C20.9649 15.1546 19.914 15.393 18.9952 15.7368C18.0419 16.0916 17.238 16.574 16.434 17.3502C15.63 18.1265 15.1362 18.9082 14.7629 19.8231C14.4069 20.7102 14.1599 21.7249 14.091 23.2164C14.0221 24.7023 14.0049 25.1791 14.0049 28.9716C14.0049 32.7641 14.0221 33.2409 14.091 34.7324C14.1599 36.2184 14.4069 37.233 14.7629 38.1257C15.1304 39.0461 15.63 39.8223 16.434 40.5986C17.238 41.3748 18.0477 41.8516 18.9952 42.212C19.914 42.5558 20.9649 42.7942 22.5096 42.8607C24.0544 42.9273 24.5425 42.9439 28.4762 42.9439C32.4098 42.9439 32.898 42.9273 34.4427 42.8607C35.9817 42.7942 37.0326 42.5558 37.9572 42.212C38.9104 41.8572 39.7144 41.3748 40.5183 40.5986C41.3223 39.8223 41.8162 39.0405 42.1894 38.1257C42.5455 37.2386 42.7924 36.2239 42.8613 34.7324C42.9302 33.2409 42.9475 32.7696 42.9475 28.9716C42.9475 25.1736 42.9302 24.7023 42.8613 23.2108C42.7924 21.7249 42.5455 20.7102 42.1894 19.8176C41.8219 18.8972 41.3223 18.1209 40.5183 17.3447C39.7144 16.5684 38.9047 16.0916 37.9572 15.7312C37.0383 15.3875 35.9875 15.149 34.4427 15.0825C32.8922 15.0215 32.3983 15.0049 28.4704 15.0049Z" fill="#302870"/>
<path d="M28.4704 21.7971C24.3702 21.7971 21.0395 25.0074 21.0395 28.9717C21.0395 32.9361 24.3702 36.1464 28.4704 36.1464C32.5706 36.1464 35.9013 32.9305 35.9013 28.9717C35.9013 25.0129 32.5706 21.7971 28.4704 21.7971ZM28.4704 33.6292C25.8059 33.6292 23.6466 31.5444 23.6466 28.9717C23.6466 26.3991 25.8059 24.3143 28.4704 24.3143C31.135 24.3143 33.2942 26.3991 33.2942 28.9717C33.2942 31.5444 31.135 33.6292 28.4704 33.6292Z" fill="#302870"/>
<path d="M36.1942 23.1889C37.152 23.1889 37.9284 22.4392 37.9284 21.5144C37.9284 20.5896 37.152 19.8399 36.1942 19.8399C35.2364 19.8399 34.4599 20.5896 34.4599 21.5144C34.4599 22.4392 35.2364 23.1889 36.1942 23.1889Z" fill="#302870"/>
</g>
<defs>
<clipPath id="clip0_456_2019">
<rect width="29" height="28" fill="white" transform="translate(14 15)"/>
</clipPath>
</defs>
</svg>
