<svg width="56" height="57" viewBox="0 0 56 57" fill="none" xmlns="http://www.w3.org/2000/svg">
<path d="M42 19.218C40.9515 19.7036 39.8394 20.0224 38.7006 20.1638C39.885 19.4194 40.796 18.243 41.2247 16.8393C40.0972 17.5392 38.8635 18.0322 37.577 18.2972C36.4913 17.0845 34.973 16.3975 33.3845 16.4004C30.2134 16.4004 27.6397 19.0898 27.6397 22.4074C27.6397 22.8788 27.6904 23.3382 27.7897 23.7769C23.0149 23.526 18.7831 21.1354 15.9492 17.5002C15.4544 18.3863 15.1722 19.4194 15.1722 20.5206C15.1722 22.6039 16.1859 24.443 17.727 25.5206C16.8146 25.4913 15.9222 25.2336 15.1247 24.7691V24.8457C15.1247 27.7556 17.105 30.1838 19.7316 30.7368C18.8857 30.9764 17.9987 31.0115 17.1379 30.8396C17.8692 33.2267 19.9913 34.9632 22.504 35.0136C20.5383 36.6224 18.0618 37.5846 15.3698 37.5846C14.912 37.584 14.4547 37.556 14 37.5005C16.5419 39.2045 19.5621 40.2004 22.8059 40.2004C33.372 40.2004 39.149 31.0444 39.149 23.1043C39.149 22.8446 39.149 22.5849 39.1312 22.327C40.2553 21.4764 41.226 20.4237 41.9982 19.218H42Z" fill="#302870"/>
<circle cx="28" cy="29" r="27.5" stroke="#AF8F3F"/>
</svg>
