<svg width="57" height="58" viewBox="0 0 57 58" fill="none" xmlns="http://www.w3.org/2000/svg">
<g clip-path="url(#clip0_456_2023)">
<path d="M43 29C43 21.2672 36.509 15 28.5 15C20.491 15 14 21.2672 14 29C14 35.9891 19.3016 41.7805 26.2344 42.8305V33.0469H22.5527V29H26.2344V25.9156C26.2344 22.4074 28.398 20.4688 31.7115 20.4688C33.2975 20.4688 34.957 20.7422 34.957 20.7422V24.1875H33.1275C31.3264 24.1875 30.7656 25.2676 30.7656 26.375V29H34.7871L34.1442 33.0469H30.7656V42.8305C37.6984 41.7805 43 35.9891 43 29Z" fill="#302870"/>
</g>
<circle cx="28" cy="29" r="27.5" stroke="#AF8F3F"/>
<defs>
<clipPath id="clip0_456_2023">
<rect width="29" height="28" fill="white" transform="translate(14 15)"/>
</clipPath>
</defs>
</svg>
