<svg width="41" height="41" viewBox="0 0 41 41" fill="none" xmlns="http://www.w3.org/2000/svg">
<g clip-path="url(#clip0_351_947)">
<path d="M30.5 20.3496C30.5 14.8262 26.0234 10.3496 20.5 10.3496C14.9766 10.3496 10.5 14.8262 10.5 20.3496C10.5 25.3418 14.1562 29.4785 18.9375 30.2285V23.2402H16.3984V20.3496H18.9375V18.1465C18.9375 15.6406 20.4297 14.2559 22.7148 14.2559C23.8086 14.2559 24.9531 14.4512 24.9531 14.4512V16.9121H23.6914C22.4492 16.9121 22.0625 17.6836 22.0625 18.4746V20.3496H24.8359L24.3926 23.2402H22.0625V30.2285C26.8438 29.4785 30.5 25.3418 30.5 20.3496Z" fill="#AF8F3F"/>
</g>
<circle cx="20.5" cy="20.3496" r="19.5" stroke="#AF8F3F"/>
<defs>
<clipPath id="clip0_351_947">
<rect width="20" height="20" fill="white" transform="translate(10.5 10.3496)"/>
</clipPath>
</defs>
</svg>
