<svg width="41" height="41" viewBox="0 0 41 41" fill="none" xmlns="http://www.w3.org/2000/svg">
<circle cx="20.5" cy="20.3496" r="19.5" stroke="#AF8F3F"/>
<g clip-path="url(#clip0_351_946)">
<path d="M20.4795 12.1506C23.1449 12.1506 23.4577 12.1624 24.5112 12.21C25.4855 12.2535 26.0122 12.4159 26.3647 12.5545C26.832 12.7367 27.1647 12.9506 27.5132 13.2991C27.8617 13.6476 28.0795 13.9803 28.2577 14.4476C28.3924 14.8001 28.5587 15.3268 28.6023 16.3011C28.6498 17.3545 28.6617 17.6674 28.6617 20.3327C28.6617 22.9981 28.6498 23.311 28.6023 24.3644C28.5587 25.3387 28.3964 25.8654 28.2577 26.2179C28.0756 26.6852 27.8617 27.0179 27.5132 27.3664C27.1647 27.7149 26.832 27.9327 26.3647 28.111C26.0122 28.2456 25.4855 28.4119 24.5112 28.4555C23.4577 28.503 23.1449 28.5149 20.4795 28.5149C17.8142 28.5149 17.5013 28.503 16.4478 28.4555C15.4736 28.4119 14.9469 28.2496 14.5944 28.111C14.1271 27.9288 13.7944 27.7149 13.4459 27.3664C13.0974 27.0179 12.8795 26.6852 12.7013 26.2179C12.5667 25.8654 12.4003 25.3387 12.3568 24.3644C12.3092 23.311 12.2974 22.9981 12.2974 20.3327C12.2974 17.6674 12.3092 17.3545 12.3568 16.3011C12.4003 15.3268 12.5627 14.8001 12.7013 14.4476C12.8835 13.9803 13.0974 13.6476 13.4459 13.2991C13.7944 12.9506 14.1271 12.7327 14.5944 12.5545C14.9469 12.4199 15.4736 12.2535 16.4478 12.21C17.5013 12.1585 17.8142 12.1506 20.4795 12.1506ZM20.4795 10.3525C17.7706 10.3525 17.43 10.3644 16.3647 10.4119C15.3033 10.4595 14.5785 10.6298 13.9449 10.8753C13.2875 11.1288 12.733 11.4733 12.1785 12.0278C11.6241 12.5822 11.2835 13.1407 11.0261 13.7941C10.7805 14.4278 10.6102 15.1525 10.5627 16.2179C10.5152 17.2793 10.5033 17.6199 10.5033 20.3288C10.5033 23.0377 10.5152 23.3783 10.5627 24.4436C10.6102 25.505 10.7805 26.2298 11.0261 26.8674C11.2795 27.5248 11.6241 28.0793 12.1785 28.6337C12.733 29.1882 13.2914 29.5288 13.9449 29.7862C14.5785 30.0317 15.3033 30.202 16.3686 30.2496C17.434 30.2971 17.7706 30.309 20.4835 30.309C23.1964 30.309 23.533 30.2971 24.5983 30.2496C25.6597 30.202 26.3845 30.0317 27.0221 29.7862C27.6795 29.5327 28.234 29.1882 28.7884 28.6337C29.3429 28.0793 29.6835 27.5209 29.9409 26.8674C30.1865 26.2337 30.3568 25.509 30.4043 24.4436C30.4518 23.3783 30.4637 23.0416 30.4637 20.3288C30.4637 17.6159 30.4518 17.2793 30.4043 16.2139C30.3568 15.1525 30.1865 14.4278 29.9409 13.7902C29.6875 13.1327 29.3429 12.5783 28.7884 12.0238C28.234 11.4694 27.6756 11.1288 27.0221 10.8714C26.3884 10.6258 25.6637 10.4555 24.5983 10.408C23.529 10.3644 23.1884 10.3525 20.4795 10.3525Z" fill="#AF8F3F"/>
<path d="M20.4795 15.2041C17.6518 15.2041 15.3548 17.4972 15.3548 20.3289C15.3548 23.1605 17.6518 25.4536 20.4795 25.4536C23.3072 25.4536 25.6043 23.1566 25.6043 20.3289C25.6043 17.5011 23.3072 15.2041 20.4795 15.2041ZM20.4795 23.6556C18.6419 23.6556 17.1528 22.1665 17.1528 20.3289C17.1528 18.4912 18.6419 17.0021 20.4795 17.0021C22.3171 17.0021 23.8062 18.4912 23.8062 20.3289C23.8062 22.1665 22.3171 23.6556 20.4795 23.6556Z" fill="#AF8F3F"/>
<path d="M25.8063 16.1982C26.4668 16.1982 27.0023 15.6627 27.0023 15.0022C27.0023 14.3416 26.4668 13.8062 25.8063 13.8062C25.1457 13.8062 24.6102 14.3416 24.6102 15.0022C24.6102 15.6627 25.1457 16.1982 25.8063 16.1982Z" fill="#AF8F3F"/>
</g>
<defs>
<clipPath id="clip0_351_946">
<rect width="20" height="20" fill="white" transform="translate(10.5 10.3496)"/>
</clipPath>
</defs>
</svg>
