<svg width="41" height="41" viewBox="0 0 41 41" fill="none" xmlns="http://www.w3.org/2000/svg">
<g clip-path="url(#clip0_351_949)">
<path d="M30.5 13.3622C29.751 13.709 28.9567 13.9367 28.1433 14.0377C28.9893 13.506 29.64 12.6658 29.9462 11.6631C29.1408 12.163 28.2596 12.5152 27.3407 12.7045C26.5652 11.8382 25.4807 11.3476 24.3461 11.3496C22.081 11.3496 20.2426 13.2706 20.2426 15.6403C20.2426 15.977 20.2789 16.3052 20.3498 16.6186C16.9392 16.4393 13.9165 14.7317 11.8923 12.1352C11.5389 12.7682 11.3373 13.506 11.3373 14.2927C11.3373 15.7807 12.0614 17.0944 13.1621 17.864C12.5104 17.8431 11.873 17.659 11.3033 17.3272V17.382C11.3033 19.4604 12.7179 21.1949 14.594 21.5899C13.9898 21.761 13.3562 21.7861 12.7413 21.6633C13.2637 23.3684 14.7795 24.6088 16.5743 24.6448C15.1702 25.7939 13.4013 26.4812 11.4784 26.4812C11.1514 26.4808 10.8248 26.4607 10.5 26.4211C12.3157 27.6383 14.4729 28.3496 16.7899 28.3496C24.3372 28.3496 28.4636 21.8096 28.4636 16.1381C28.4636 15.9526 28.4636 15.7671 28.4508 15.5829C29.2538 14.9753 29.9472 14.2234 30.4987 13.3622H30.5Z" fill="#AF8F3F"/>
</g>
<circle cx="20.5" cy="20.3496" r="19.5" stroke="#AF8F3F"/>
<defs>
<clipPath id="clip0_351_949">
<rect width="20" height="20" fill="white" transform="translate(10.5 10.3496)"/>
</clipPath>
</defs>
</svg>
