<svg width="41" height="41" viewBox="0 0 41 41" fill="none" xmlns="http://www.w3.org/2000/svg">
<g clip-path="url(#clip0_351_948)">
<path d="M30.08 15.3992C30.5 16.9992 30.5 20.3392 30.5 20.3392C30.5 20.3392 30.5 23.6792 30.08 25.2792C29.86 26.1592 29.18 26.8592 28.32 27.0992C26.76 27.5392 20.5 27.5392 20.5 27.5392C20.5 27.5392 14.24 27.5392 12.68 27.0992C11.82 26.8592 11.14 26.1592 10.92 25.2792C10.5 23.6792 10.5 20.3392 10.5 20.3392C10.5 20.3392 10.5 16.9992 10.92 15.3992C11.14 14.5192 11.82 13.8192 12.68 13.5792C14.24 13.1592 20.5 13.1592 20.5 13.1592C20.5 13.1592 26.76 13.1592 28.32 13.5792C29.18 13.8192 29.86 14.5192 30.08 15.3992ZM18.62 23.7792L23.62 20.6592L18.62 17.5392V23.7792Z" fill="#AF8F3F"/>
</g>
<circle cx="20.5" cy="20.3496" r="19.5" stroke="#AF8F3F"/>
<defs>
<clipPath id="clip0_351_948">
<rect width="20" height="20" fill="white" transform="translate(10.5 10.3496)"/>
</clipPath>
</defs>
</svg>
